<svg viewBox="0 0 10 10" xmlns="http://www.w3.org/2000/svg" fill="currentColor">
  <path d="M8.71325 8.33442C8.67429 8.21337 8.56242 8.1315 8.43512 8.13046C7.25867 8.12379 5.80075 7.05608 5.38637 6.43442L5.74304 6.19671C5.83241 6.13692 5.882 6.03275 5.87221 5.92483C5.86262 5.81754 5.79491 5.72421 5.69554 5.68108C5.687 5.67733 5.60491 5.64025 5.49554 5.5565C5.74241 5.37087 5.90721 5.04942 5.93012 4.67025C6.05471 4.62942 6.14533 4.51337 6.14533 4.37504C6.14533 4.20254 6.00554 4.06254 5.83283 4.06254H4.92887C4.9945 2.5565 6.00346 1.39629 6.50471 1.05962C6.61304 0.986707 6.66033 0.853999 6.622 0.728791C6.58366 0.604416 6.47054 0.520874 6.33929 0.520874C4.45429 0.527957 2.90575 1.34171 2.09054 2.75358C1.48033 3.81004 1.322 5.08817 1.65575 6.26004C1.97721 7.39067 2.71325 8.31317 3.72825 8.85775C4.48575 9.26441 5.30346 9.47921 6.09262 9.47921C6.09304 9.47921 6.09325 9.47921 6.09366 9.47921C7.00679 9.47921 7.87596 9.19692 8.607 8.66254C8.70971 8.58712 8.75242 8.45525 8.71325 8.33442ZM2.91616 4.06254C2.74346 4.06254 2.60366 4.20254 2.60366 4.37504C2.60366 4.54754 2.74346 4.68754 2.91616 4.68754H3.02866C3.07116 5.27858 3.46137 5.72921 3.95783 5.72921C4.21158 5.72921 4.43762 5.61004 4.60471 5.41629C4.74137 5.64837 4.90117 5.82421 5.04908 5.95108L4.84533 6.08692C4.73783 6.15817 4.68971 6.28942 4.72554 6.41358C4.77783 6.59504 4.92179 6.81983 5.12991 7.05671L4.93846 7.08837C4.54533 7.13692 4.07137 6.96275 3.76221 6.65379L3.55387 6.44546C3.43179 6.32337 3.23408 6.32337 3.112 6.44546C2.98991 6.56754 2.98991 6.76525 3.112 6.88733L3.32033 7.09566C3.71179 7.48712 4.27325 7.72025 4.80887 7.72025C4.88262 7.72025 4.95596 7.71587 5.02825 7.70671L5.67554 7.59962C5.68242 7.59858 5.68866 7.59587 5.69533 7.59421C6.20721 8.00837 6.86866 8.39233 7.56179 8.58754C6.47241 9.06067 5.19283 8.97483 4.00658 8.33858C3.13387 7.87025 2.50012 7.07504 2.22221 6.09879C1.932 5.079 2.06991 3.96712 2.60075 3.04754C3.19054 2.02629 4.22471 1.36629 5.53179 1.17004C5.11658 1.65462 4.39283 2.69212 4.33929 4.06212H2.91616V4.06254ZM4.26325 4.68754C4.23054 4.93171 4.08762 5.10421 3.95783 5.10421C3.82804 5.10421 3.68512 4.93171 3.65242 4.68754H4.26325ZM5.08825 5.07671C5.0295 4.96962 4.977 4.84629 4.93741 4.70379L4.93679 4.68754H5.30491C5.27971 4.8765 5.18825 5.02025 5.08825 5.07671Z"/>
</svg>