<svg xmlns="http://www.w3.org/2000/svg" x="0px" y="0px" fill="currentColor" viewBox="0 0 48 48">
<path d="M 11.5 4 A 1.50015 1.50015 0 0 0 10.058594 5.0878906 L 4.0585938 26.087891 A 1.50015 1.50015 0 0 0 5.5 28 L 10.578125 28 L 7.0449219 42.136719 A 1.50015 1.50015 0 0 0 9.5820312 43.539062 L 33.582031 18.539062 A 1.50015 1.50015 0 0 0 32.5 16 L 23.582031 16 L 26.923828 5.9746094 A 1.50015 1.50015 0 0 0 25.5 4 L 11.5 4 z M 12.630859 7 L 23.417969 7 L 20.076172 17.025391 A 1.50015 1.50015 0 0 0 21.5 19 L 28.980469 19 L 11.322266 37.394531 L 13.955078 26.863281 A 1.50015 1.50015 0 0 0 12.5 25 L 7.4882812 25 L 12.630859 7 z M 34.992188 22 A 1.50015 1.50015 0 0 0 33.605469 22.949219 L 28.164062 36.736328 A 1.50015 1.50015 0 0 0 27.990234 37.171875 L 26.105469 41.949219 A 1.50015 1.50015 0 1 0 28.894531 43.050781 L 30.494141 39 L 39.505859 39 L 41.105469 43.050781 A 1.50015 1.50015 0 1 0 43.894531 41.949219 L 42.015625 37.1875 A 1.50015 1.50015 0 0 0 41.835938 36.734375 L 36.394531 22.949219 A 1.50015 1.50015 0 0 0 34.992188 22 z M 35 27.583984 L 38.322266 36 L 31.677734 36 L 35 27.583984 z"></path>
</svg>